<svg xmlns="http://www.w3.org/2000/svg" width="50" height="50" fill="none"><rect width="50" height="50" fill="#E5EEEB" rx="4"/><g fill="#45766A" clip-path="url(#a)"><path d="M19.035 31.928h3.643v.302h-3.643zm16.004 0H43v.302h-7.96zm-.194-11.05c.331.456.599.857.812 1.213.069-1.146.267-1.845.464-2.247V23c.102.26.175.532.18.818q0 .306-.12.558a1 1 0 0 1-.06.11v5.902a.87.87 0 0 0 1.738 0v-6.347h.326v6.346a.87.87 0 1 0 1.739 0v-7.1c-1.983-2.13-3.34-4.48-3.667-5.071q-.093.03-.196.081c-.378.188-.786.598-1.071 1.325-.12.303-.224.663-.304 1.094a.8.8 0 0 1 .159.162m-.336 2.459.002.06.032.006z"/><path d="M37.439 19.693a26.5 26.5 0 0 0 2.485 3.238v-3.085q.062.127.125.297c.198.55.365 1.451.364 2.857q.001.581-.04 1.282a.563.563 0 1 0 1.123.066q.04-.673.042-1.348c-.003-2.121-.342-3.296-.804-4.002-.23-.35-.501-.575-.75-.7a1.3 1.3 0 0 0-.594-.15h-.002l-.008-.001h-2.716l-.01.001q-.077 0-.152.011c.156.279.476.832.936 1.534M38.022 17.746a1.582 1.582 0 1 0 0-3.164 1.582 1.582 0 0 0 0 3.164M11.765 25.877v14.145a1.495 1.495 0 1 0 2.992 0v-10.92h.56v10.92a1.495 1.495 0 1 0 2.992 0v-18.14q.12.25.215.513c.34.945.628 2.495.627 4.916q0 1-.069 2.204a.968.968 0 0 0 1.933.113q.072-1.257.071-2.317c-.005-3.651-.588-5.672-1.383-6.887-.397-.603-.862-.99-1.292-1.204a2.3 2.3 0 0 0-1-.258l-.037-.002h-.568l-.297 2.324-1.18-1.42.816-.904h-2.216l.816.903-1.18 1.421-.297-2.324H12.7a1 1 0 0 0-.107.006c-.428.006-.868.03-1.295.042q-.18.007-.358.006c-.691.008-1.29-.09-1.568-.263a.7.7 0 0 1-.296-.298c-.072-.135-.14-.355-.14-.729-.001-.403.085-.975.313-1.722a.97.97 0 0 0-.644-1.207q-.01-.004-.02-.005v-2.522c.265-.424.94-1.182 2.117-.48 3.192 1.903 3.387-2.54 3.387-2.54s-1.673.928-2.883-.16c-1.024-.922-2.264-.4-2.62-.217v-.389h-.444v6.288a.97.97 0 0 0-.745.668c-.265.875-.396 1.62-.397 2.286 0 .61.116 1.164.366 1.637.376.718 1.042 1.149 1.676 1.346.642.205 1.288.24 1.898.243l.1-.001q.377-.005.725-.02z"/><path d="M15.48 18.234a2.722 2.722 0 1 0-.887-5.371 2.722 2.722 0 0 0 .888 5.37m13.743 5.883c-.122-1.217-.395-1.992-.735-2.512-.23-.35-.5-.575-.75-.7a1.3 1.3 0 0 0-.594-.15h-.494a10.7 10.7 0 0 1 .24 3.327v1.291h-2.227v-1.29a10.658 10.658 0 0 1 .24-3.33h-.485l-.01.002c-.124 0-.344.024-.593.15-.378.188-.786.598-1.07 1.325-.29.73-.483 1.785-.485 3.378q0 .617.043 1.347a.563.563 0 0 0 .56.53l.034-.002a.56.56 0 0 0 .529-.594q-.04-.64-.04-1.281c-.003-1.703.245-2.658.49-3.157v10.545a.87.87 0 1 0 1.738 0v-6.347h.326v6.347a.87.87 0 0 0 1.738 0V22.453q.063.127.125.298c.199.55.365 1.45.365 2.857q0 .58-.04 1.281a.56.56 0 0 0 .247.497c.056-1.048.213-1.89.476-2.556.112-.286.24-.52.372-.713"/><path d="M24.834 23.188c0 .322.015.588.031.78h1.823a10.449 10.449 0 0 0-.255-3.213H25.12c-.225.93-.286 1.792-.286 2.433M25.777 20.354a1.582 1.582 0 1 0 0-3.164 1.582 1.582 0 0 0 0 3.164M25.775 25.104a.395.395 0 1 0 0-.791.395.395 0 0 0 0 .79M31.288 20.625h2.162a1.58 1.58 0 0 0-2.924.835 1.582 1.582 0 0 0 2.956.782h-2.194z"/><path d="M32.636 21.867a.434.434 0 1 0 0-.867.434.434 0 0 0 0 .867"/><path d="M36.059 23.823c-.005-.361-.13-.706-.354-1.15-.226-.442-.566-.978-1.056-1.652a.563.563 0 0 0-.91.661c.469.644.78 1.14.965 1.503.119.227.18.403.21.514a4 4 0 0 1-.665-.113c-.134-.03-.268-.063-.398-.09a2 2 0 0 0-.33-.048q-.026-.004-.054-.005H30.74c-.125 0-.343.025-.593.15-.378.188-.786.599-1.071 1.325-.289.73-.483 1.785-.483 3.378q0 .617.041 1.347a.562.562 0 1 0 1.123-.065q-.038-.64-.04-1.282c-.002-1.703.246-2.657.49-3.157v10.545a.87.87 0 1 0 1.739 0v-6.346h.325v6.346a.87.87 0 0 0 1.74 0V24.686l.204.045c.229.048.472.092.73.093.216-.003.461-.025.713-.193a.9.9 0 0 0 .305-.357 1.05 1.05 0 0 0 .096-.451"/></g><defs><clipPath id="a"><path fill="#fff" d="M7 7h36v36H7z"/></clipPath></defs></svg>